ffmpeg started on 2026-04-01 at 12:16:37
Report written to "D:\Convert\FFMetrics\reports\ssim_report-6.txt"
Log level: 32
Command line:
ffmpeg -hide_banner -nostdin -r 24000/1001 -i "F:\\Convert\\files\\[DC] Make Heroine ga Oosugiru - 07_Telegram_HEVC(283).mkv" -r 24000/1001 -i "F:\\Convert\\files\\[DC] Make Heroine ga Oosugiru - 07_Telegram.mp4" -lavfi "[0:v]settb=AVTB,setpts=PTS-STARTPTS,format=pix_fmts=yuv420p10le,fps=24000/1001,scale=1920:1080:flags=lanczos:param0=3:out_range=limited:out_color_matrix=bt709:out_chroma_loc=left,setsar=1/1,setdar=(1920/1080)*(1/1),colorspace=format=yuv420p10:range=tv:primaries=bt709:trc=bt709:space=bt709:fast=0[main];[1:v]settb=AVTB,setpts=PTS-STARTPTS,format=pix_fmts=yuv420p,fps=24000/1001,scale=1920:1080:flags=lanczos:param0=3:out_range=limited:out_color_matrix=bt709:out_chroma_loc=left,setsar=1/1,setdar=(1920/1080)*(1/1),colorspace=format=yuv420p:range=tv:primaries=bt709:trc=bt709:space=bt709:fast=0[ref];[main][ref]ssim=eof_action=endall:stats_file='D\\:/Convert/FFMetrics/logs/ssim_logfile-6.txt'" -f null -
Input #0, matroska,webm, from 'F:\Convert\files\[DC] Make Heroine ga Oosugiru - 07_Telegram_HEVC(283).mkv':
  Metadata:
    COMPATIBLE_BRANDS: isomiso2avc1mp41
    MAJOR_BRAND     : isom
    MINOR_VERSION   : 512
    ENCODER         : Lavf61.7.100
  Duration: 00:24:06.79, start: -0.021000, bitrate: 1053 kb/s
  Stream #0:0: Video: hevc (Main 10), yuv420p10le(tv, bt709, progressive), 1920x1080 [SAR 1:1 DAR 16:9], 23.98 fps, 23.98 tbr, 1k tbn (default)
      Metadata:
        HANDLER_NAME    : VideoHandler
        VENDOR_ID       : [0][0][0][0]
        ENCODER         : Lavc61.19.100 libx265
        BPS             : 856527
        DURATION        : 00:24:06.569708333
        NUMBER_OF_FRAMES: 34683
        NUMBER_OF_BYTES : 154878320
        _STATISTICS_WRITING_APP: mkvpropedit v94.0 ('Initiate') 64-bit
        _STATISTICS_WRITING_DATE_UTC: 2026-03-30 15:11:15
        _STATISTICS_TAGS: BPS DURATION NUMBER_OF_FRAMES NUMBER_OF_BYTES
  Stream #0:1: Audio: aac (LC), 48000 Hz, stereo, fltp (default)
      Metadata:
        HANDLER_NAME    : SoundHandler
        VENDOR_ID       : [0][0][0][0]
        ENCODER         : Lavc61.19.100 aac
        BPS             : 193194
        DURATION        : 00:24:06.784000000
        NUMBER_OF_FRAMES: 67819
        NUMBER_OF_BYTES : 34938755
        _STATISTICS_WRITING_APP: mkvpropedit v94.0 ('Initiate') 64-bit
        _STATISTICS_WRITING_DATE_UTC: 2026-03-30 15:11:15
        _STATISTICS_TAGS: BPS DURATION NUMBER_OF_FRAMES NUMBER_OF_BYTES
Input #1, mov,mp4,m4a,3gp,3g2,mj2, from 'F:\Convert\files\[DC] Make Heroine ga Oosugiru - 07_Telegram.mp4':
  Metadata:
    major_brand     : isom
    minor_version   : 512
    compatible_brands: isomiso2avc1mp41
    encoder         : Lavf60.16.100
  Duration: 00:24:06.74, start: 0.000000, bitrate: 3764 kb/s
  Stream #1:0[0x1](und): Video: h264 (High) (avc1 / 0x31637661), yuv420p(tv, bt709, progressive), 1920x1080 [SAR 1:1 DAR 16:9], 3616 kb/s, 23.98 fps, 23.98 tbr, 24k tbn (default)
      Metadata:
        handler_name    : VideoHandler
        vendor_id       : [0][0][0][0]
        encoder         : Lavc60.31.102 h264_qsv
  Stream #1:1[0x2](und): Audio: aac (HE-AACv2) (mp4a / 0x6134706D), 48000 Hz, stereo, fltp, 144 kb/s (default)
      Metadata:
        handler_name    : SoundHandler
        vendor_id       : [0][0][0][0]
Stream mapping:
  Stream #0:0 (hevc) -> settb:default
  Stream #1:0 (h264) -> settb:default
  ssim:default -> Stream #0:0 (wrapped_avframe)
  Stream #0:1 -> #0:1 (aac (native) -> pcm_s16le (native))
Output #0, null, to 'pipe:':
  Metadata:
    COMPATIBLE_BRANDS: isomiso2avc1mp41
    MAJOR_BRAND     : isom
    MINOR_VERSION   : 512
    encoder         : Lavf61.7.100
  Stream #0:0: Video: wrapped_avframe, yuv420p10le(tv, bt709, progressive), 1920x1080 [SAR 1:1 DAR 16:9], q=2-31, 200 kb/s, 23.98 fps, 23.98 tbn
      Metadata:
        encoder         : Lavc61.19.100 wrapped_avframe
  Stream #0:1: Audio: pcm_s16le, 48000 Hz, stereo, s16, 1536 kb/s (default)
      Metadata:
        HANDLER_NAME    : SoundHandler
        VENDOR_ID       : [0][0][0][0]
        _STATISTICS_TAGS: BPS DURATION NUMBER_OF_FRAMES NUMBER_OF_BYTES
        BPS             : 193194
        DURATION        : 00:24:06.784000000
        NUMBER_OF_FRAMES: 67819
        NUMBER_OF_BYTES : 34938755
        _STATISTICS_WRITING_APP: mkvpropedit v94.0 ('Initiate') 64-bit
        _STATISTICS_WRITING_DATE_UTC: 2026-03-30 15:11:15
        encoder         : Lavc61.19.100 pcm_s16le
frame=  115 fps=0.0 q=-0.0 size=N/A time=00:00:04.79 bitrate=N/A speed=9.42x    frame=  295 fps=289 q=-0.0 size=N/A time=00:00:12.30 bitrate=N/A speed=  12x    frame=  476 fps=310 q=-0.0 size=N/A time=00:00:19.85 bitrate=N/A speed=12.9x    frame=  665 fps=323 q=-0.0 size=N/A time=00:00:27.73 bitrate=N/A speed=13.5x    frame=  848 fps=329 q=-0.0 size=N/A time=00:00:35.36 bitrate=N/A speed=13.7x    frame=  986 fps=320 q=-0.0 size=N/A time=00:00:41.12 bitrate=N/A speed=13.3x    frame= 1138 fps=317 q=-0.0 size=N/A time=00:00:47.46 bitrate=N/A speed=13.2x    frame= 1304 fps=316 q=-0.0 size=N/A time=00:00:54.38 bitrate=N/A speed=13.2x    frame= 1455 fps=314 q=-0.0 size=N/A time=00:01:00.68 bitrate=N/A speed=13.1x    frame= 1601 fps=311 q=-0.0 size=N/A time=00:01:06.77 bitrate=N/A speed=  13x    frame= 1751 fps=309 q=-0.0 size=N/A time=00:01:13.03 bitrate=N/A speed=12.9x    frame= 1910 fps=309 q=-0.0 size=N/A time=00:01:19.66 bitrate=N/A speed=12.9x    frame= 2058 fps=307 q=-0.0 size=N/A time=00:01:25.83 bitrate=N/A speed=12.8x    frame= 2179 fps=302 q=-0.0 size=N/A time=00:01:30.88 bitrate=N/A speed=12.6x    frame= 2333 fps=302 q=-0.0 size=N/A time=00:01:37.30 bitrate=N/A speed=12.6x    frame= 2473 fps=300 q=-0.0 size=N/A time=00:01:43.14 bitrate=N/A speed=12.5x    frame= 2608 fps=298 q=-0.0 size=N/A time=00:01:48.77 bitrate=N/A speed=12.4x    frame= 2783 fps=300 q=-0.0 size=N/A time=00:01:56.07 bitrate=N/A speed=12.5x    frame= 2955 fps=302 q=-0.0 size=N/A time=00:02:03.24 bitrate=N/A speed=12.6x    frame= 3137 fps=304 q=-0.0 size=N/A time=00:02:10.83 bitrate=N/A speed=12.7x    frame= 3320 fps=307 q=-0.0 size=N/A time=00:02:18.47 bitrate=N/A speed=12.8x    frame= 3501 fps=309 q=-0.0 size=N/A time=00:02:26.02 bitrate=N/A speed=12.9x    frame= 3691 fps=311 q=-0.0 size=N/A time=00:02:33.94 bitrate=N/A speed=  13x    frame= 3879 fps=313 q=-0.0 size=N/A time=00:02:41.78 bitrate=N/A speed=13.1x    frame= 4063 fps=315 q=-0.0 size=N/A time=00:02:49.46 bitrate=N/A speed=13.1x    frame= 4247 fps=317 q=-0.0 size=N/A time=00:02:57.13 bitrate=N/A speed=13.2x    frame= 4426 fps=318 q=-0.0 size=N/A time=00:03:04.60 bitrate=N/A speed=13.3x    frame= 4614 fps=319 q=-0.0 size=N/A time=00:03:12.44 bitrate=N/A speed=13.3x    frame= 4792 fps=320 q=-0.0 size=N/A time=00:03:19.86 bitrate=N/A speed=13.4x    frame= 4977 fps=321 q=-0.0 size=N/A time=00:03:27.58 bitrate=N/A speed=13.4x    frame= 5162 fps=323 q=-0.0 size=N/A time=00:03:35.29 bitrate=N/A speed=13.5x    frame= 5350 fps=324 q=-0.0 size=N/A time=00:03:43.13 bitrate=N/A speed=13.5x    frame= 5533 fps=325 q=-0.0 size=N/A time=00:03:50.77 bitrate=N/A speed=13.6x    frame= 5710 fps=326 q=-0.0 size=N/A time=00:03:58.15 bitrate=N/A speed=13.6x    frame= 5887 fps=326 q=-0.0 size=N/A time=00:04:05.53 bitrate=N/A speed=13.6x    frame= 6067 fps=327 q=-0.0 size=N/A time=00:04:13.04 bitrate=N/A speed=13.6x    frame= 6254 fps=328 q=-0.0 size=N/A time=00:04:20.84 bitrate=N/A speed=13.7x    frame= 6438 fps=328 q=-0.0 size=N/A time=00:04:28.51 bitrate=N/A speed=13.7x    frame= 6616 fps=329 q=-0.0 size=N/A time=00:04:35.94 bitrate=N/A speed=13.7x    frame= 6807 fps=330 q=-0.0 size=N/A time=00:04:43.90 bitrate=N/A speed=13.8x    frame= 6993 fps=331 q=-0.0 size=N/A time=00:04:51.66 bitrate=N/A speed=13.8x    frame= 7172 fps=331 q=-0.0 size=N/A time=00:04:59.13 bitrate=N/A speed=13.8x    frame= 7352 fps=331 q=-0.0 size=N/A time=00:05:06.63 bitrate=N/A speed=13.8x    frame= 7530 fps=332 q=-0.0 size=N/A time=00:05:14.06 bitrate=N/A speed=13.8x    frame= 7708 fps=332 q=-0.0 size=N/A time=00:05:21.48 bitrate=N/A speed=13.8x    frame= 7892 fps=332 q=-0.0 size=N/A time=00:05:29.16 bitrate=N/A speed=13.9x    frame= 8067 fps=333 q=-0.0 size=N/A time=00:05:36.46 bitrate=N/A speed=13.9x    frame= 8246 fps=333 q=-0.0 size=N/A time=00:05:43.92 bitrate=N/A speed=13.9x    frame= 8432 fps=333 q=-0.0 size=N/A time=00:05:51.68 bitrate=N/A speed=13.9x    frame= 8621 fps=334 q=-0.0 size=N/A time=00:05:59.56 bitrate=N/A speed=13.9x    frame= 8801 fps=334 q=-0.0 size=N/A time=00:06:07.07 bitrate=N/A speed=13.9x    frame= 8981 fps=335 q=-0.0 size=N/A time=00:06:14.58 bitrate=N/A speed=  14x    frame= 9168 fps=335 q=-0.0 size=N/A time=00:06:22.38 bitrate=N/A speed=  14x    frame= 9353 fps=335 q=-0.0 size=N/A time=00:06:30.09 bitrate=N/A speed=  14x    frame= 9534 fps=336 q=-0.0 size=N/A time=00:06:37.64 bitrate=N/A speed=  14x    frame= 9723 fps=336 q=-0.0 size=N/A time=00:06:45.53 bitrate=N/A speed=  14x    frame= 9910 fps=336 q=-0.0 size=N/A time=00:06:53.32 bitrate=N/A speed=  14x    frame=10091 fps=337 q=-0.0 size=N/A time=00:07:00.87 bitrate=N/A speed=  14x    frame=10266 fps=337 q=-0.0 size=N/A time=00:07:08.17 bitrate=N/A speed=  14x    frame=10452 fps=337 q=-0.0 size=N/A time=00:07:15.93 bitrate=N/A speed=14.1x    frame=10631 fps=337 q=-0.0 size=N/A time=00:07:23.40 bitrate=N/A speed=14.1x    frame=10816 fps=338 q=-0.0 size=N/A time=00:07:31.11 bitrate=N/A speed=14.1x    frame=10996 fps=338 q=-0.0 size=N/A time=00:07:38.62 bitrate=N/A speed=14.1x    frame=11175 fps=338 q=-0.0 size=N/A time=00:07:46.09 bitrate=N/A speed=14.1x    frame=11362 fps=338 q=-0.0 size=N/A time=00:07:53.89 bitrate=N/A speed=14.1x    frame=11547 fps=339 q=-0.0 size=N/A time=00:08:01.60 bitrate=N/A speed=14.1x    frame=11729 fps=339 q=-0.0 size=N/A time=00:08:09.19 bitrate=N/A speed=14.1x    frame=11919 fps=339 q=-0.0 size=N/A time=00:08:17.12 bitrate=N/A speed=14.1x    frame=12095 fps=339 q=-0.0 size=N/A time=00:08:24.46 bitrate=N/A speed=14.2x    frame=12275 fps=339 q=-0.0 size=N/A time=00:08:31.96 bitrate=N/A speed=14.2x    frame=12460 fps=340 q=-0.0 size=N/A time=00:08:39.68 bitrate=N/A speed=14.2x    frame=12638 fps=340 q=-0.0 size=N/A time=00:08:47.10 bitrate=N/A speed=14.2x    frame=12823 fps=340 q=-0.0 size=N/A time=00:08:54.82 bitrate=N/A speed=14.2x    frame=13007 fps=340 q=-0.0 size=N/A time=00:09:02.50 bitrate=N/A speed=14.2x    frame=13190 fps=340 q=-0.0 size=N/A time=00:09:10.13 bitrate=N/A speed=14.2x    frame=13369 fps=341 q=-0.0 size=N/A time=00:09:17.59 bitrate=N/A speed=14.2x    frame=13546 fps=341 q=-0.0 size=N/A time=00:09:24.98 bitrate=N/A speed=14.2x    frame=13718 fps=341 q=-0.0 size=N/A time=00:09:32.15 bitrate=N/A speed=14.2x    frame=13908 fps=341 q=-0.0 size=N/A time=00:09:40.07 bitrate=N/A speed=14.2x    frame=14086 fps=341 q=-0.0 size=N/A time=00:09:47.50 bitrate=N/A speed=14.2x    frame=14254 fps=341 q=-0.0 size=N/A time=00:09:54.51 bitrate=N/A speed=14.2x    frame=14436 fps=341 q=-0.0 size=N/A time=00:10:02.10 bitrate=N/A speed=14.2x    frame=14619 fps=341 q=-0.0 size=N/A time=00:10:09.73 bitrate=N/A speed=14.2x    frame=14799 fps=341 q=-0.0 size=N/A time=00:10:17.24 bitrate=N/A speed=14.2x    frame=14979 fps=341 q=-0.0 size=N/A time=00:10:24.74 bitrate=N/A speed=14.2x    frame=15140 fps=341 q=-0.0 size=N/A time=00:10:31.46 bitrate=N/A speed=14.2x    frame=15314 fps=341 q=-0.0 size=N/A time=00:10:38.72 bitrate=N/A speed=14.2x    frame=15500 fps=341 q=-0.0 size=N/A time=00:10:46.47 bitrate=N/A speed=14.2x    frame=15679 fps=341 q=-0.0 size=N/A time=00:10:53.94 bitrate=N/A speed=14.2x    frame=15863 fps=341 q=-0.0 size=N/A time=00:11:01.61 bitrate=N/A speed=14.2x    frame=16040 fps=341 q=-0.0 size=N/A time=00:11:09.00 bitrate=N/A speed=14.2x    frame=16217 fps=341 q=-0.0 size=N/A time=00:11:16.38 bitrate=N/A speed=14.2x    frame=16409 fps=342 q=-0.0 size=N/A time=00:11:24.39 bitrate=N/A speed=14.2x    frame=16586 fps=342 q=-0.0 size=N/A time=00:11:31.77 bitrate=N/A speed=14.3x    frame=16760 fps=342 q=-0.0 size=N/A time=00:11:39.03 bitrate=N/A speed=14.3x    frame=16951 fps=342 q=-0.0 size=N/A time=00:11:46.99 bitrate=N/A speed=14.3x    frame=17135 fps=342 q=-0.0 size=N/A time=00:11:54.67 bitrate=N/A speed=14.3x    frame=17312 fps=342 q=-0.0 size=N/A time=00:12:02.05 bitrate=N/A speed=14.3x    frame=17490 fps=342 q=-0.0 size=N/A time=00:12:09.47 bitrate=N/A speed=14.3x    frame=17675 fps=342 q=-0.0 size=N/A time=00:12:17.19 bitrate=N/A speed=14.3x    frame=17849 fps=342 q=-0.0 size=N/A time=00:12:24.45 bitrate=N/A speed=14.3x    frame=18032 fps=342 q=-0.0 size=N/A time=00:12:32.08 bitrate=N/A speed=14.3x    frame=18211 fps=342 q=-0.0 size=N/A time=00:12:39.55 bitrate=N/A speed=14.3x    frame=18392 fps=342 q=-0.0 size=N/A time=00:12:47.09 bitrate=N/A speed=14.3x    frame=18573 fps=343 q=-0.0 size=N/A time=00:12:54.64 bitrate=N/A speed=14.3x    frame=18753 fps=343 q=-0.0 size=N/A time=00:13:02.15 bitrate=N/A speed=14.3x    frame=18930 fps=343 q=-0.0 size=N/A time=00:13:09.53 bitrate=N/A speed=14.3x    frame=19115 fps=343 q=-0.0 size=N/A time=00:13:17.25 bitrate=N/A speed=14.3x    frame=19301 fps=343 q=-0.0 size=N/A time=00:13:25.01 bitrate=N/A speed=14.3x    frame=19476 fps=343 q=-0.0 size=N/A time=00:13:32.31 bitrate=N/A speed=14.3x    frame=19644 fps=343 q=-0.0 size=N/A time=00:13:39.31 bitrate=N/A speed=14.3x    frame=19830 fps=343 q=-0.0 size=N/A time=00:13:47.07 bitrate=N/A speed=14.3x    frame=20008 fps=343 q=-0.0 size=N/A time=00:13:54.50 bitrate=N/A speed=14.3x    frame=20186 fps=343 q=-0.0 size=N/A time=00:14:01.92 bitrate=N/A speed=14.3x    frame=20367 fps=343 q=-0.0 size=N/A time=00:14:09.47 bitrate=N/A speed=14.3x    frame=20537 fps=343 q=-0.0 size=N/A time=00:14:16.56 bitrate=N/A speed=14.3x    frame=20698 fps=343 q=-0.0 size=N/A time=00:14:23.27 bitrate=N/A speed=14.3x    frame=20867 fps=343 q=-0.0 size=N/A time=00:14:30.32 bitrate=N/A speed=14.3x    frame=21044 fps=343 q=-0.0 size=N/A time=00:14:37.71 bitrate=N/A speed=14.3x    frame=21232 fps=343 q=-0.0 size=N/A time=00:14:45.55 bitrate=N/A speed=14.3x    frame=21410 fps=343 q=-0.0 size=N/A time=00:14:52.97 bitrate=N/A speed=14.3x    frame=21596 fps=343 q=-0.0 size=N/A time=00:15:00.73 bitrate=N/A speed=14.3x    frame=21780 fps=343 q=-0.0 size=N/A time=00:15:08.40 bitrate=N/A speed=14.3x    frame=21963 fps=343 q=-0.0 size=N/A time=00:15:16.04 bitrate=N/A speed=14.3x    frame=22146 fps=343 q=-0.0 size=N/A time=00:15:23.67 bitrate=N/A speed=14.3x    frame=22332 fps=343 q=-0.0 size=N/A time=00:15:31.43 bitrate=N/A speed=14.3x    frame=22513 fps=343 q=-0.0 size=N/A time=00:15:38.97 bitrate=N/A speed=14.3x    frame=22698 fps=344 q=-0.0 size=N/A time=00:15:46.69 bitrate=N/A speed=14.3x    frame=22871 fps=343 q=-0.0 size=N/A time=00:15:53.91 bitrate=N/A speed=14.3x    frame=23050 fps=344 q=-0.0 size=N/A time=00:16:01.37 bitrate=N/A speed=14.3x    frame=23233 fps=344 q=-0.0 size=N/A time=00:16:09.00 bitrate=N/A speed=14.3x    frame=23408 fps=344 q=-0.0 size=N/A time=00:16:16.30 bitrate=N/A speed=14.3x    frame=23590 fps=344 q=-0.0 size=N/A time=00:16:23.89 bitrate=N/A speed=14.3x    frame=23778 fps=344 q=-0.0 size=N/A time=00:16:31.74 bitrate=N/A speed=14.3x    frame=23958 fps=344 q=-0.0 size=N/A time=00:16:39.24 bitrate=N/A speed=14.3x    frame=24143 fps=344 q=-0.0 size=N/A time=00:16:46.96 bitrate=N/A speed=14.3x    frame=24319 fps=344 q=-0.0 size=N/A time=00:16:54.30 bitrate=N/A speed=14.3x    frame=24510 fps=344 q=-0.0 size=N/A time=00:17:02.27 bitrate=N/A speed=14.4x    frame=24687 fps=344 q=-0.0 size=N/A time=00:17:09.65 bitrate=N/A speed=14.4x    frame=24870 fps=344 q=-0.0 size=N/A time=00:17:17.28 bitrate=N/A speed=14.4x    frame=25053 fps=344 q=-0.0 size=N/A time=00:17:24.91 bitrate=N/A speed=14.4x    frame=25239 fps=344 q=-0.0 size=N/A time=00:17:32.67 bitrate=N/A speed=14.4x    frame=25420 fps=344 q=-0.0 size=N/A time=00:17:40.22 bitrate=N/A speed=14.4x    frame=25606 fps=345 q=-0.0 size=N/A time=00:17:47.98 bitrate=N/A speed=14.4x    frame=25782 fps=345 q=-0.0 size=N/A time=00:17:55.32 bitrate=N/A speed=14.4x    frame=25964 fps=345 q=-0.0 size=N/A time=00:18:02.91 bitrate=N/A speed=14.4x    frame=26151 fps=345 q=-0.0 size=N/A time=00:18:10.71 bitrate=N/A speed=14.4x    frame=26331 fps=345 q=-0.0 size=N/A time=00:18:18.22 bitrate=N/A speed=14.4x    frame=26514 fps=345 q=-0.0 size=N/A time=00:18:25.85 bitrate=N/A speed=14.4x    frame=26705 fps=345 q=-0.0 size=N/A time=00:18:33.82 bitrate=N/A speed=14.4x    frame=26882 fps=345 q=-0.0 size=N/A time=00:18:41.20 bitrate=N/A speed=14.4x    frame=27049 fps=345 q=-0.0 size=N/A time=00:18:48.16 bitrate=N/A speed=14.4x    frame=27227 fps=345 q=-0.0 size=N/A time=00:18:55.59 bitrate=N/A speed=14.4x    frame=27405 fps=345 q=-0.0 size=N/A time=00:19:03.01 bitrate=N/A speed=14.4x    frame=27588 fps=345 q=-0.0 size=N/A time=00:19:10.64 bitrate=N/A speed=14.4x    frame=27771 fps=345 q=-0.0 size=N/A time=00:19:18.28 bitrate=N/A speed=14.4x    frame=27955 fps=345 q=-0.0 size=N/A time=00:19:25.95 bitrate=N/A speed=14.4x    frame=28137 fps=345 q=-0.0 size=N/A time=00:19:33.54 bitrate=N/A speed=14.4x    frame=28317 fps=345 q=-0.0 size=N/A time=00:19:41.05 bitrate=N/A speed=14.4x    frame=28486 fps=345 q=-0.0 size=N/A time=00:19:48.10 bitrate=N/A speed=14.4x    frame=28674 fps=345 q=-0.0 size=N/A time=00:19:55.94 bitrate=N/A speed=14.4x    frame=28846 fps=345 q=-0.0 size=N/A time=00:20:03.11 bitrate=N/A speed=14.4x    frame=29007 fps=345 q=-0.0 size=N/A time=00:20:09.83 bitrate=N/A speed=14.4x    frame=29185 fps=345 q=-0.0 size=N/A time=00:20:17.25 bitrate=N/A speed=14.4x    frame=29366 fps=345 q=-0.0 size=N/A time=00:20:24.80 bitrate=N/A speed=14.4x    frame=29531 fps=345 q=-0.0 size=N/A time=00:20:31.68 bitrate=N/A speed=14.4x    frame=29703 fps=345 q=-0.0 size=N/A time=00:20:38.86 bitrate=N/A speed=14.4x    frame=29876 fps=345 q=-0.0 size=N/A time=00:20:46.07 bitrate=N/A speed=14.4x    frame=30027 fps=344 q=-0.0 size=N/A time=00:20:52.37 bitrate=N/A speed=14.4x    frame=30206 fps=344 q=-0.0 size=N/A time=00:20:59.84 bitrate=N/A speed=14.4x    frame=30391 fps=344 q=-0.0 size=N/A time=00:21:07.55 bitrate=N/A speed=14.4x    frame=30571 fps=344 q=-0.0 size=N/A time=00:21:15.06 bitrate=N/A speed=14.4x    frame=30747 fps=344 q=-0.0 size=N/A time=00:21:22.40 bitrate=N/A speed=14.4x    frame=30925 fps=344 q=-0.0 size=N/A time=00:21:29.83 bitrate=N/A speed=14.4x    frame=31104 fps=344 q=-0.0 size=N/A time=00:21:37.29 bitrate=N/A speed=14.4x    frame=31280 fps=344 q=-0.0 size=N/A time=00:21:44.63 bitrate=N/A speed=14.4x    frame=31461 fps=344 q=-0.0 size=N/A time=00:21:52.18 bitrate=N/A speed=14.4x    frame=31638 fps=344 q=-0.0 size=N/A time=00:21:59.56 bitrate=N/A speed=14.4x    frame=31815 fps=344 q=-0.0 size=N/A time=00:22:06.95 bitrate=N/A speed=14.4x    frame=31986 fps=344 q=-0.0 size=N/A time=00:22:14.08 bitrate=N/A speed=14.4x    frame=32170 fps=344 q=-0.0 size=N/A time=00:22:21.75 bitrate=N/A speed=14.4x    frame=32349 fps=344 q=-0.0 size=N/A time=00:22:29.22 bitrate=N/A speed=14.4x    frame=32526 fps=344 q=-0.0 size=N/A time=00:22:36.60 bitrate=N/A speed=14.4x    frame=32677 fps=344 q=-0.0 size=N/A time=00:22:42.90 bitrate=N/A speed=14.3x    frame=32834 fps=344 q=-0.0 size=N/A time=00:22:49.45 bitrate=N/A speed=14.3x    frame=32993 fps=344 q=-0.0 size=N/A time=00:22:56.08 bitrate=N/A speed=14.3x    frame=33161 fps=344 q=-0.0 size=N/A time=00:23:03.09 bitrate=N/A speed=14.3x    frame=33341 fps=344 q=-0.0 size=N/A time=00:23:10.59 bitrate=N/A speed=14.3x    frame=33495 fps=343 q=-0.0 size=N/A time=00:23:17.02 bitrate=N/A speed=14.3x    frame=33639 fps=343 q=-0.0 size=N/A time=00:23:23.02 bitrate=N/A speed=14.3x    frame=33769 fps=343 q=-0.0 size=N/A time=00:23:28.44 bitrate=N/A speed=14.3x    frame=33895 fps=342 q=-0.0 size=N/A time=00:23:33.70 bitrate=N/A speed=14.3x    frame=34051 fps=342 q=-0.0 size=N/A time=00:23:40.21 bitrate=N/A speed=14.3x    frame=34202 fps=342 q=-0.0 size=N/A time=00:23:46.50 bitrate=N/A speed=14.2x    frame=34335 fps=341 q=-0.0 size=N/A time=00:23:52.05 bitrate=N/A speed=14.2x    frame=34464 fps=341 q=-0.0 size=N/A time=00:23:57.43 bitrate=N/A speed=14.2x    frame=34633 fps=341 q=-0.0 size=N/A time=00:24:04.48 bitrate=N/A speed=14.2x    [Parsed_ssim_16 @ 0000025cd4cd1700] SSIM Y:0.994558 (22.642770) U:0.994287 (22.431298) V:0.993934 (22.170704) All:0.994409 (22.525147)
[out#0/null @ 0000025ccd8fdec0] video:14903KiB audio:271276KiB subtitle:0KiB other streams:0KiB global headers:0KiB muxing overhead: unknown
frame=34683 fps=341 q=-0.0 Lsize=N/A time=00:24:06.57 bitrate=N/A speed=14.2x    
